<svg width="245" height="327" viewBox="0 0 245 327" fill="none" xmlns="http://www.w3.org/2000/svg">
<path d="M103.069 326.79C72.4618 324.584 42.2106 316.88 23.6578 306.565C13.0901 300.69 5.039 293.47 1.8797 287.035L0 283.207V163.114V43.021L1.4874 40.0008C8.13433 26.5051 29.3477 14.3386 58.9604 7.03862C69.0125 4.56044 83.5242 2.09256 95.3629 0.848096C107.452 -0.422994 139.494 -0.229607 151.553 1.1891C183.603 4.95472 210.876 13.385 227.683 24.722C234.164 29.094 240.815 36.0896 243.068 40.9049L245 45.0334L244.835 164.763L244.669 284.493L243.119 287.644C242.266 289.376 239.69 292.785 237.394 295.219C223.419 310.034 193.442 320.994 154.122 325.663C146.108 326.615 111.291 327.383 103.069 326.79ZM159.473 223.887C159.356 223.58 154.78 219.504 149.306 214.828C143.831 210.152 139.116 206.107 138.828 205.838C138.54 205.57 139.551 204.619 141.076 203.725C142.6 202.832 145.521 200.346 147.566 198.201C153.547 191.928 156.37 184.18 156.37 174.031C156.37 164.04 153.326 155.979 147.23 149.825C141.086 143.623 134.031 140.957 123.757 140.957C107.922 140.957 95.7601 150.198 91.8784 165.179C90.5431 170.332 90.5502 180.745 91.8924 185.314C95.393 197.232 104.927 205.888 116.793 207.921C120.808 208.609 121.352 208.905 124.089 211.898C125.716 213.677 129.055 217.228 131.508 219.789L135.969 224.445H147.829C154.351 224.445 159.591 224.194 159.473 223.887ZM118.804 190.68C115.949 189.192 114.869 188.036 113.241 184.726C111.984 182.17 111.769 180.716 111.755 174.674C111.741 168.534 111.936 167.207 113.249 164.541C115.397 160.179 118.357 158.114 122.936 157.782C129.31 157.32 132.99 160.448 134.918 167.967C137.282 177.184 134.682 186.984 129.01 190.236C126.034 191.943 121.595 192.136 118.804 190.68ZM66.2386 207.79C78.6722 205.432 85.7304 198.201 85.7304 187.82C85.7304 178.611 81.1736 173.245 68.5796 167.623C61.3702 164.404 58.7588 162.384 58.7588 160.023C58.7588 158.067 61.237 155.923 64.1219 155.384C66.9387 154.858 74.4097 156.156 78.8214 157.938L82.5195 159.432V151.246V143.06L78.5058 142.169C76.0253 141.619 70.8128 141.289 64.8595 141.306C56.4267 141.306 54.7756 141.511 51.6021 142.771C42.3324 146.452 37.9336 152.721 38.004 162.151C38.0699 170.979 42.7268 176.485 54.3169 181.439C61.1554 184.362 63.8964 186.588 63.8964 189.218C63.8964 194.808 54.5839 195.496 44.7242 190.634C42.024 189.303 39.5981 188.105 39.3332 187.973C39.0683 187.84 38.8516 191.664 38.8516 196.471C38.8516 205.171 38.8609 205.213 40.4359 205.813C46.3673 208.068 59.4769 209.072 66.2386 207.79ZM208.386 199.72V192.334H197.148H185.91V166.967V141.6H175.956H166.002V174.352V207.105H187.194H208.386V199.72ZM139.031 70.2982C158.811 68.9262 173.638 66.3359 186.685 61.9732C199.683 57.627 207.362 52.368 209.079 46.6352C209.741 44.4261 209.694 43.5882 208.769 41.166C204.622 30.3074 181.457 21.9645 146.059 18.582C130.917 17.1348 103.379 17.6039 88.9421 19.5542C66.9127 22.5309 49.0347 28.0598 41.0854 34.3545C25.0049 47.0888 42.0101 61.0948 81.5564 67.687C98.7035 70.5455 120.919 71.5548 139.031 70.2982Z" fill="#2FA098"/>
</svg>
